<mxfile host="Electron" modified="2024-02-18T11:56:20.268Z" agent="Mozilla/5.0 (Windows NT 10.0; Win64; x64) AppleWebKit/537.36 (KHTML, like Gecko) draw.io/23.1.5 Chrome/120.0.6099.109 Electron/28.1.0 Safari/537.36" etag="3fB6HsbNJtc1-SHx2RVd" version="23.1.5" type="device">
  <diagram name="Страница — 1" id="xZNUQnsZwhwj6v9jkUTT">
    <mxGraphModel dx="1434" dy="844" grid="1" gridSize="10" guides="1" tooltips="1" connect="1" arrows="1" fold="1" page="1" pageScale="1" pageWidth="827" pageHeight="1169" math="0" shadow="0">
      <root>
        <mxCell id="0" />
        <mxCell id="1" parent="0" />
        <mxCell id="C4oUIbmPvkeHJI7v9q8c-1" value="начало" style="ellipse;whiteSpace=wrap;html=1;" vertex="1" parent="1">
          <mxGeometry x="380" width="120" height="30" as="geometry" />
        </mxCell>
        <mxCell id="C4oUIbmPvkeHJI7v9q8c-2" value="" style="endArrow=classic;html=1;rounded=0;entryX=0.5;entryY=0;entryDx=0;entryDy=0;" edge="1" parent="1" target="C4oUIbmPvkeHJI7v9q8c-5">
          <mxGeometry width="50" height="50" relative="1" as="geometry">
            <mxPoint x="439.8" y="30" as="sourcePoint" />
            <mxPoint x="440" y="280" as="targetPoint" />
          </mxGeometry>
        </mxCell>
        <mxCell id="C4oUIbmPvkeHJI7v9q8c-3" value="" style="endArrow=none;html=1;rounded=0;" edge="1" parent="1">
          <mxGeometry width="50" height="50" relative="1" as="geometry">
            <mxPoint x="440" y="120" as="sourcePoint" />
            <mxPoint x="520" y="120" as="targetPoint" />
          </mxGeometry>
        </mxCell>
        <mxCell id="C4oUIbmPvkeHJI7v9q8c-4" value="&lt;div&gt;#include &amp;lt;iostream&amp;gt;&lt;/div&gt;&lt;div&gt;#include &amp;lt;string&amp;gt;&lt;/div&gt;&lt;div&gt;#include &amp;lt;fstream&amp;gt;&lt;/div&gt;&lt;div&gt;using namespace std;&lt;/div&gt;&lt;div&gt;char vowels[] = {&#39;а&#39;, &#39;А&#39;, &#39;е&#39;, &#39;Е&#39;, &#39;ё&#39;, &#39;Ё&#39;, &#39;э&#39;, &#39;Э&#39;, &#39;у&#39;, &#39;У&#39;, &#39;о&#39;, &#39;О&#39;, &#39;ы&#39;, &#39;и&#39;, &#39;И&#39;, &#39;ю&#39;, &#39;Ю&#39;, &#39;я&#39;, &#39;Я&#39;, &#39;a&#39;, &#39;A&#39;, &#39;o&#39;, &#39;O&#39;, &#39;e&#39;, &#39;E&#39;, &#39;i&#39;, &#39;I&#39;, &#39;u&#39;, &#39;U&#39;, &#39;y&#39;, &#39;Y&#39;};&lt;/div&gt;&lt;div&gt;&lt;div&gt;bool CheckLine(string String)&amp;nbsp;&lt;span style=&quot;background-color: initial;&quot;&gt;{&lt;/span&gt;&lt;/div&gt;&lt;div&gt;string Arr[500]; //Массив строк&lt;span style=&quot;&quot;&gt;&lt;/span&gt;&lt;/div&gt;&lt;div&gt;&lt;span style=&quot;&quot;&gt;&lt;span style=&quot;&quot;&gt;&lt;span style=&quot;white-space: pre;&quot;&gt;&amp;nbsp;&amp;nbsp;&amp;nbsp;&amp;nbsp;&lt;/span&gt;&lt;/span&gt;int ArrOfStringsCounter = 0;&lt;/span&gt;&lt;/div&gt;&lt;div&gt;&lt;span style=&quot;&quot;&gt;&lt;span style=&quot;&quot;&gt;&lt;span style=&quot;white-space: pre;&quot;&gt;&amp;nbsp;&amp;nbsp;&amp;nbsp;&amp;nbsp;&lt;/span&gt;&lt;/span&gt;int counter = 0;&lt;/span&gt;&lt;/div&gt;&lt;div&gt;&lt;span style=&quot;&quot;&gt;&lt;span style=&quot;&quot;&gt;&lt;span style=&quot;white-space: pre;&quot;&gt;&amp;nbsp;&amp;nbsp;&amp;nbsp;&amp;nbsp;&lt;/span&gt;&lt;/span&gt;int size = String.size();&lt;/span&gt;&lt;/div&gt;&lt;div&gt;&lt;span style=&quot;&quot;&gt;&lt;span style=&quot;&quot;&gt;&lt;span style=&quot;white-space: pre;&quot;&gt;&amp;nbsp;&amp;nbsp;&amp;nbsp;&amp;nbsp;&lt;/span&gt;&lt;/span&gt;string buffer = &quot;&quot;;&lt;/span&gt;&lt;/div&gt;&lt;div&gt;&lt;span style=&quot;&quot;&gt;&lt;span style=&quot;&quot;&gt;&lt;span style=&quot;white-space: pre;&quot;&gt;&amp;nbsp;&amp;nbsp;&amp;nbsp;&amp;nbsp;&lt;/span&gt;&lt;/span&gt;bool flag = false;&lt;/span&gt;&lt;/div&gt;&lt;/div&gt;" style="rounded=0;whiteSpace=wrap;html=1;" vertex="1" parent="1">
          <mxGeometry x="520" width="170" height="230" as="geometry" />
        </mxCell>
        <mxCell id="C4oUIbmPvkeHJI7v9q8c-7" style="edgeStyle=orthogonalEdgeStyle;rounded=0;orthogonalLoop=1;jettySize=auto;html=1;entryX=0.5;entryY=0;entryDx=0;entryDy=0;" edge="1" parent="1" source="C4oUIbmPvkeHJI7v9q8c-5" target="C4oUIbmPvkeHJI7v9q8c-6">
          <mxGeometry relative="1" as="geometry" />
        </mxCell>
        <mxCell id="C4oUIbmPvkeHJI7v9q8c-5" value="for (int i = 0; i &amp;lt; size + 1; i++)" style="shape=hexagon;perimeter=hexagonPerimeter2;whiteSpace=wrap;html=1;fixedSize=1;" vertex="1" parent="1">
          <mxGeometry x="355" y="275" width="170" height="30" as="geometry" />
        </mxCell>
        <mxCell id="C4oUIbmPvkeHJI7v9q8c-6" value="if (String[i] == &#39; &#39; || i == size)" style="rhombus;whiteSpace=wrap;html=1;" vertex="1" parent="1">
          <mxGeometry x="355" y="360" width="170" height="80" as="geometry" />
        </mxCell>
        <mxCell id="C4oUIbmPvkeHJI7v9q8c-8" value="1" style="text;html=1;align=center;verticalAlign=middle;whiteSpace=wrap;rounded=0;" vertex="1" parent="1">
          <mxGeometry x="400" y="320" width="60" height="30" as="geometry" />
        </mxCell>
        <mxCell id="C4oUIbmPvkeHJI7v9q8c-9" value="{" style="text;html=1;align=center;verticalAlign=middle;whiteSpace=wrap;rounded=0;" vertex="1" parent="1">
          <mxGeometry x="430" y="320" width="60" height="30" as="geometry" />
        </mxCell>
        <mxCell id="C4oUIbmPvkeHJI7v9q8c-10" value="" style="endArrow=none;html=1;rounded=0;" edge="1" parent="1">
          <mxGeometry width="50" height="50" relative="1" as="geometry">
            <mxPoint x="320" y="400" as="sourcePoint" />
            <mxPoint x="355" y="399.8" as="targetPoint" />
          </mxGeometry>
        </mxCell>
        <mxCell id="C4oUIbmPvkeHJI7v9q8c-11" value="" style="endArrow=none;html=1;rounded=0;" edge="1" parent="1">
          <mxGeometry width="50" height="50" relative="1" as="geometry">
            <mxPoint x="525" y="400" as="sourcePoint" />
            <mxPoint x="540" y="400" as="targetPoint" />
          </mxGeometry>
        </mxCell>
        <mxCell id="C4oUIbmPvkeHJI7v9q8c-12" value="" style="endArrow=classic;html=1;rounded=0;" edge="1" parent="1">
          <mxGeometry width="50" height="50" relative="1" as="geometry">
            <mxPoint x="320" y="400" as="sourcePoint" />
            <mxPoint x="320" y="440" as="targetPoint" />
          </mxGeometry>
        </mxCell>
        <mxCell id="C4oUIbmPvkeHJI7v9q8c-13" value="1" style="text;html=1;align=center;verticalAlign=middle;whiteSpace=wrap;rounded=0;" vertex="1" parent="1">
          <mxGeometry x="330" y="370" width="60" height="30" as="geometry" />
        </mxCell>
        <mxCell id="C4oUIbmPvkeHJI7v9q8c-16" style="edgeStyle=orthogonalEdgeStyle;rounded=0;orthogonalLoop=1;jettySize=auto;html=1;entryX=0.5;entryY=0;entryDx=0;entryDy=0;" edge="1" parent="1" source="C4oUIbmPvkeHJI7v9q8c-14" target="C4oUIbmPvkeHJI7v9q8c-15">
          <mxGeometry relative="1" as="geometry" />
        </mxCell>
        <mxCell id="C4oUIbmPvkeHJI7v9q8c-14" value="Arr[ArrOfStringsCounter] = buffer;" style="rounded=0;whiteSpace=wrap;html=1;" vertex="1" parent="1">
          <mxGeometry x="225" y="440" width="190" height="20" as="geometry" />
        </mxCell>
        <mxCell id="C4oUIbmPvkeHJI7v9q8c-18" style="edgeStyle=orthogonalEdgeStyle;rounded=0;orthogonalLoop=1;jettySize=auto;html=1;entryX=0.5;entryY=0;entryDx=0;entryDy=0;" edge="1" parent="1" source="C4oUIbmPvkeHJI7v9q8c-15" target="C4oUIbmPvkeHJI7v9q8c-17">
          <mxGeometry relative="1" as="geometry" />
        </mxCell>
        <mxCell id="C4oUIbmPvkeHJI7v9q8c-15" value="buffer = &quot;&quot;;" style="rounded=0;whiteSpace=wrap;html=1;" vertex="1" parent="1">
          <mxGeometry x="290" y="490" width="60" height="20" as="geometry" />
        </mxCell>
        <mxCell id="C4oUIbmPvkeHJI7v9q8c-17" value="ArrOfStringsCounter++;" style="rounded=0;whiteSpace=wrap;html=1;" vertex="1" parent="1">
          <mxGeometry x="255" y="540" width="130" height="20" as="geometry" />
        </mxCell>
        <mxCell id="C4oUIbmPvkeHJI7v9q8c-19" value="{" style="text;html=1;align=center;verticalAlign=middle;whiteSpace=wrap;rounded=0;" vertex="1" parent="1">
          <mxGeometry x="300" y="410" width="60" height="30" as="geometry" />
        </mxCell>
        <mxCell id="C4oUIbmPvkeHJI7v9q8c-20" value="}" style="text;html=1;align=center;verticalAlign=middle;whiteSpace=wrap;rounded=0;" vertex="1" parent="1">
          <mxGeometry x="300" y="555" width="60" height="30" as="geometry" />
        </mxCell>
        <mxCell id="C4oUIbmPvkeHJI7v9q8c-21" value="" style="endArrow=none;html=1;rounded=0;" edge="1" parent="1">
          <mxGeometry width="50" height="50" relative="1" as="geometry">
            <mxPoint x="320" y="600" as="sourcePoint" />
            <mxPoint x="319.8" y="560" as="targetPoint" />
          </mxGeometry>
        </mxCell>
        <mxCell id="C4oUIbmPvkeHJI7v9q8c-22" value="0" style="text;html=1;align=center;verticalAlign=middle;whiteSpace=wrap;rounded=0;" vertex="1" parent="1">
          <mxGeometry x="500" y="370" width="60" height="30" as="geometry" />
        </mxCell>
        <mxCell id="C4oUIbmPvkeHJI7v9q8c-24" value="buffer += String[i];" style="rounded=0;whiteSpace=wrap;html=1;" vertex="1" parent="1">
          <mxGeometry x="470" y="440" width="120" height="20" as="geometry" />
        </mxCell>
        <mxCell id="C4oUIbmPvkeHJI7v9q8c-25" value="{" style="text;html=1;align=center;verticalAlign=middle;whiteSpace=wrap;rounded=0;" vertex="1" parent="1">
          <mxGeometry x="500" y="410" width="60" height="30" as="geometry" />
        </mxCell>
        <mxCell id="C4oUIbmPvkeHJI7v9q8c-26" value="" style="endArrow=none;html=1;rounded=0;" edge="1" parent="1">
          <mxGeometry width="50" height="50" relative="1" as="geometry">
            <mxPoint x="540.2" y="600" as="sourcePoint" />
            <mxPoint x="540" y="460" as="targetPoint" />
          </mxGeometry>
        </mxCell>
        <mxCell id="C4oUIbmPvkeHJI7v9q8c-27" value="}" style="text;html=1;align=center;verticalAlign=middle;whiteSpace=wrap;rounded=0;" vertex="1" parent="1">
          <mxGeometry x="520" y="460" width="60" height="30" as="geometry" />
        </mxCell>
        <mxCell id="C4oUIbmPvkeHJI7v9q8c-28" value="" style="endArrow=none;html=1;rounded=0;" edge="1" parent="1">
          <mxGeometry width="50" height="50" relative="1" as="geometry">
            <mxPoint x="320" y="600" as="sourcePoint" />
            <mxPoint x="540" y="600" as="targetPoint" />
          </mxGeometry>
        </mxCell>
        <mxCell id="C4oUIbmPvkeHJI7v9q8c-29" value="" style="endArrow=none;html=1;rounded=0;" edge="1" parent="1">
          <mxGeometry width="50" height="50" relative="1" as="geometry">
            <mxPoint x="440" y="640" as="sourcePoint" />
            <mxPoint x="439.8" y="600" as="targetPoint" />
          </mxGeometry>
        </mxCell>
        <mxCell id="C4oUIbmPvkeHJI7v9q8c-30" value="}" style="text;html=1;align=center;verticalAlign=middle;whiteSpace=wrap;rounded=0;" vertex="1" parent="1">
          <mxGeometry x="420" y="600" width="60" height="30" as="geometry" />
        </mxCell>
        <mxCell id="C4oUIbmPvkeHJI7v9q8c-31" value="" style="endArrow=none;html=1;rounded=0;" edge="1" parent="1">
          <mxGeometry width="50" height="50" relative="1" as="geometry">
            <mxPoint x="200" y="640" as="sourcePoint" />
            <mxPoint x="440" y="640" as="targetPoint" />
          </mxGeometry>
        </mxCell>
        <mxCell id="C4oUIbmPvkeHJI7v9q8c-32" value="" style="endArrow=none;html=1;rounded=0;" edge="1" parent="1">
          <mxGeometry width="50" height="50" relative="1" as="geometry">
            <mxPoint x="200" y="640" as="sourcePoint" />
            <mxPoint x="200" y="290" as="targetPoint" />
          </mxGeometry>
        </mxCell>
        <mxCell id="C4oUIbmPvkeHJI7v9q8c-33" value="" style="endArrow=classic;html=1;rounded=0;" edge="1" parent="1">
          <mxGeometry width="50" height="50" relative="1" as="geometry">
            <mxPoint x="200" y="290" as="sourcePoint" />
            <mxPoint x="355" y="289.8" as="targetPoint" />
          </mxGeometry>
        </mxCell>
        <mxCell id="C4oUIbmPvkeHJI7v9q8c-34" value="" style="endArrow=none;html=1;rounded=0;" edge="1" parent="1">
          <mxGeometry width="50" height="50" relative="1" as="geometry">
            <mxPoint x="525" y="289.66" as="sourcePoint" />
            <mxPoint x="800" y="290" as="targetPoint" />
          </mxGeometry>
        </mxCell>
        <mxCell id="C4oUIbmPvkeHJI7v9q8c-35" value="0" style="text;html=1;align=center;verticalAlign=middle;whiteSpace=wrap;rounded=0;" vertex="1" parent="1">
          <mxGeometry x="490" y="260" width="60" height="30" as="geometry" />
        </mxCell>
        <mxCell id="C4oUIbmPvkeHJI7v9q8c-36" value="" style="endArrow=classic;html=1;rounded=0;" edge="1" parent="1">
          <mxGeometry width="50" height="50" relative="1" as="geometry">
            <mxPoint x="800" y="290" as="sourcePoint" />
            <mxPoint x="800" y="320" as="targetPoint" />
          </mxGeometry>
        </mxCell>
        <mxCell id="C4oUIbmPvkeHJI7v9q8c-39" style="edgeStyle=orthogonalEdgeStyle;rounded=0;orthogonalLoop=1;jettySize=auto;html=1;entryX=0.5;entryY=0;entryDx=0;entryDy=0;" edge="1" parent="1" source="C4oUIbmPvkeHJI7v9q8c-37" target="C4oUIbmPvkeHJI7v9q8c-38">
          <mxGeometry relative="1" as="geometry" />
        </mxCell>
        <mxCell id="C4oUIbmPvkeHJI7v9q8c-37" value="while (counter &amp;lt; ArrOfStringsCounter &amp;amp;&amp;amp; !flag)" style="rhombus;whiteSpace=wrap;html=1;" vertex="1" parent="1">
          <mxGeometry x="730" y="320" width="140" height="100" as="geometry" />
        </mxCell>
        <mxCell id="C4oUIbmPvkeHJI7v9q8c-38" value="if (Arr[counter].size() &amp;gt; 1)" style="rhombus;whiteSpace=wrap;html=1;" vertex="1" parent="1">
          <mxGeometry x="745" y="480" width="110" height="80" as="geometry" />
        </mxCell>
        <mxCell id="C4oUIbmPvkeHJI7v9q8c-40" value="1" style="text;html=1;align=center;verticalAlign=middle;whiteSpace=wrap;rounded=0;" vertex="1" parent="1">
          <mxGeometry x="760" y="420" width="60" height="30" as="geometry" />
        </mxCell>
        <mxCell id="C4oUIbmPvkeHJI7v9q8c-41" value="}" style="text;html=1;align=center;verticalAlign=middle;whiteSpace=wrap;rounded=0;" vertex="1" parent="1">
          <mxGeometry x="780" y="420" width="60" height="30" as="geometry" />
        </mxCell>
        <mxCell id="C4oUIbmPvkeHJI7v9q8c-42" value="" style="endArrow=none;html=1;rounded=0;" edge="1" parent="1">
          <mxGeometry width="50" height="50" relative="1" as="geometry">
            <mxPoint x="720" y="520" as="sourcePoint" />
            <mxPoint x="745" y="519.76" as="targetPoint" />
          </mxGeometry>
        </mxCell>
        <mxCell id="C4oUIbmPvkeHJI7v9q8c-44" value="" style="endArrow=classic;html=1;rounded=0;entryX=0.5;entryY=0;entryDx=0;entryDy=0;" edge="1" parent="1" target="C4oUIbmPvkeHJI7v9q8c-46">
          <mxGeometry width="50" height="50" relative="1" as="geometry">
            <mxPoint x="720" y="520" as="sourcePoint" />
            <mxPoint x="720" y="560" as="targetPoint" />
          </mxGeometry>
        </mxCell>
        <mxCell id="C4oUIbmPvkeHJI7v9q8c-46" value="flag = CheckForReapets(&amp;amp;Arr[0], Arr[counter], counter, ArrOfStringsCounter);" style="shape=process;whiteSpace=wrap;html=1;backgroundOutline=1;" vertex="1" parent="1">
          <mxGeometry x="630" y="580" width="180" height="60" as="geometry" />
        </mxCell>
        <mxCell id="C4oUIbmPvkeHJI7v9q8c-47" value="1" style="text;html=1;align=center;verticalAlign=middle;whiteSpace=wrap;rounded=0;" vertex="1" parent="1">
          <mxGeometry x="710" y="490" width="60" height="30" as="geometry" />
        </mxCell>
        <mxCell id="C4oUIbmPvkeHJI7v9q8c-48" value="{" style="text;html=1;align=center;verticalAlign=middle;whiteSpace=wrap;rounded=0;" vertex="1" parent="1">
          <mxGeometry x="710" y="540" width="60" height="30" as="geometry" />
        </mxCell>
        <mxCell id="C4oUIbmPvkeHJI7v9q8c-49" value="" style="endArrow=none;html=1;rounded=0;" edge="1" parent="1">
          <mxGeometry width="50" height="50" relative="1" as="geometry">
            <mxPoint x="720" y="680" as="sourcePoint" />
            <mxPoint x="719.76" y="640" as="targetPoint" />
          </mxGeometry>
        </mxCell>
        <mxCell id="C4oUIbmPvkeHJI7v9q8c-50" value="" style="endArrow=none;html=1;rounded=0;" edge="1" parent="1">
          <mxGeometry width="50" height="50" relative="1" as="geometry">
            <mxPoint x="855" y="520" as="sourcePoint" />
            <mxPoint x="920" y="520" as="targetPoint" />
          </mxGeometry>
        </mxCell>
        <mxCell id="C4oUIbmPvkeHJI7v9q8c-51" value="" style="endArrow=none;html=1;rounded=0;" edge="1" parent="1">
          <mxGeometry width="50" height="50" relative="1" as="geometry">
            <mxPoint x="920" y="680" as="sourcePoint" />
            <mxPoint x="920" y="520" as="targetPoint" />
          </mxGeometry>
        </mxCell>
        <mxCell id="C4oUIbmPvkeHJI7v9q8c-52" value="0" style="text;html=1;align=center;verticalAlign=middle;whiteSpace=wrap;rounded=0;" vertex="1" parent="1">
          <mxGeometry x="827" y="490" width="60" height="30" as="geometry" />
        </mxCell>
        <mxCell id="C4oUIbmPvkeHJI7v9q8c-53" value="}" style="text;html=1;align=center;verticalAlign=middle;whiteSpace=wrap;rounded=0;" vertex="1" parent="1">
          <mxGeometry x="710" y="640" width="60" height="30" as="geometry" />
        </mxCell>
        <mxCell id="C4oUIbmPvkeHJI7v9q8c-54" value="" style="endArrow=none;html=1;rounded=0;" edge="1" parent="1">
          <mxGeometry width="50" height="50" relative="1" as="geometry">
            <mxPoint x="720" y="680" as="sourcePoint" />
            <mxPoint x="920" y="680" as="targetPoint" />
          </mxGeometry>
        </mxCell>
        <mxCell id="C4oUIbmPvkeHJI7v9q8c-55" value="" style="endArrow=classic;html=1;rounded=0;" edge="1" parent="1">
          <mxGeometry width="50" height="50" relative="1" as="geometry">
            <mxPoint x="799.76" y="680" as="sourcePoint" />
            <mxPoint x="800" y="720" as="targetPoint" />
          </mxGeometry>
        </mxCell>
        <mxCell id="C4oUIbmPvkeHJI7v9q8c-56" value="counter++;" style="rounded=0;whiteSpace=wrap;html=1;" vertex="1" parent="1">
          <mxGeometry x="740" y="720" width="120" height="20" as="geometry" />
        </mxCell>
        <mxCell id="C4oUIbmPvkeHJI7v9q8c-57" value="" style="endArrow=none;html=1;rounded=0;" edge="1" parent="1">
          <mxGeometry width="50" height="50" relative="1" as="geometry">
            <mxPoint x="800" y="800" as="sourcePoint" />
            <mxPoint x="799.76" y="740" as="targetPoint" />
          </mxGeometry>
        </mxCell>
        <mxCell id="C4oUIbmPvkeHJI7v9q8c-58" value="}" style="text;html=1;align=center;verticalAlign=middle;whiteSpace=wrap;rounded=0;" vertex="1" parent="1">
          <mxGeometry x="780" y="740" width="60" height="30" as="geometry" />
        </mxCell>
        <mxCell id="C4oUIbmPvkeHJI7v9q8c-59" value="" style="endArrow=classic;html=1;rounded=0;" edge="1" parent="1">
          <mxGeometry width="50" height="50" relative="1" as="geometry">
            <mxPoint x="540" y="400" as="sourcePoint" />
            <mxPoint x="540" y="440" as="targetPoint" />
          </mxGeometry>
        </mxCell>
        <mxCell id="C4oUIbmPvkeHJI7v9q8c-60" value="" style="endArrow=none;html=1;rounded=0;" edge="1" parent="1">
          <mxGeometry width="50" height="50" relative="1" as="geometry">
            <mxPoint x="600" y="800" as="sourcePoint" />
            <mxPoint x="800" y="800" as="targetPoint" />
          </mxGeometry>
        </mxCell>
        <mxCell id="C4oUIbmPvkeHJI7v9q8c-61" value="" style="endArrow=none;html=1;rounded=0;" edge="1" parent="1">
          <mxGeometry width="50" height="50" relative="1" as="geometry">
            <mxPoint x="600" y="800" as="sourcePoint" />
            <mxPoint x="600" y="310" as="targetPoint" />
          </mxGeometry>
        </mxCell>
        <mxCell id="C4oUIbmPvkeHJI7v9q8c-62" value="" style="endArrow=classic;html=1;rounded=0;" edge="1" parent="1">
          <mxGeometry width="50" height="50" relative="1" as="geometry">
            <mxPoint x="600" y="310" as="sourcePoint" />
            <mxPoint x="800" y="310" as="targetPoint" />
          </mxGeometry>
        </mxCell>
        <mxCell id="C4oUIbmPvkeHJI7v9q8c-63" value="" style="endArrow=none;html=1;rounded=0;" edge="1" parent="1">
          <mxGeometry width="50" height="50" relative="1" as="geometry">
            <mxPoint x="870" y="370" as="sourcePoint" />
            <mxPoint x="1000" y="370" as="targetPoint" />
          </mxGeometry>
        </mxCell>
        <mxCell id="C4oUIbmPvkeHJI7v9q8c-64" value="0" style="text;html=1;align=center;verticalAlign=middle;whiteSpace=wrap;rounded=0;" vertex="1" parent="1">
          <mxGeometry x="840" y="340" width="60" height="30" as="geometry" />
        </mxCell>
        <mxCell id="C4oUIbmPvkeHJI7v9q8c-65" value="" style="endArrow=classic;html=1;rounded=0;" edge="1" parent="1">
          <mxGeometry width="50" height="50" relative="1" as="geometry">
            <mxPoint x="1000" y="370" as="sourcePoint" />
            <mxPoint x="1000" y="440" as="targetPoint" />
          </mxGeometry>
        </mxCell>
        <mxCell id="C4oUIbmPvkeHJI7v9q8c-66" value="return flag;" style="ellipse;whiteSpace=wrap;html=1;" vertex="1" parent="1">
          <mxGeometry x="940" y="440" width="120" height="30" as="geometry" />
        </mxCell>
        <mxCell id="C4oUIbmPvkeHJI7v9q8c-67" value="}" style="text;html=1;align=center;verticalAlign=middle;whiteSpace=wrap;rounded=0;" vertex="1" parent="1">
          <mxGeometry x="980" y="470" width="60" height="30" as="geometry" />
        </mxCell>
      </root>
    </mxGraphModel>
  </diagram>
</mxfile>
